<svg fill="none" height="30" viewBox="0 0 164 30" width="164" xmlns="http://www.w3.org/2000/svg" xmlns:xlink="http://www.w3.org/1999/xlink"><clipPath id="a"><path d="m0 0h164v30h-164z"/></clipPath><g clip-path="url(#a)"><g fill="#000"><path d="m149.34 15.0719c0-4.3726 2.943-7.4259 7.176-7.4259s7.146 2.8884 7.146 7.4559v1.0944l-10.174.0549c.25 1.849 1.289 2.7185 3.193 2.7185 1.624 0 2.774-.5897 3.083-1.5992h3.953c-.505 3.1084-3.278 5.1023-7.116 5.1023-4.233 0-7.256-3.0832-7.256-7.3959zm4.203-1.4842h5.826c0-1.4842-1.094-2.4387-2.828-2.4387s-2.663.7547-2.998 2.4387z"/><path d="m133.509 22.103v-14.01228h4.063l.28 1.45923c.869-1.20433 2.463-1.90395 4.287-1.90395 3.334 0 5.267 2.1288 5.267 5.8018v8.6601h-4.318v-7.6207c0-1.764-.979-2.9134-2.463-2.9134-1.709 0-2.803 1.1194-2.803 2.8584v7.6757h-4.318z"/><path d="m123.704 7.6709c4.458 0 7.706 2.9683 7.706 7.3959s-3.248 7.3709-7.706 7.3709c-4.457 0-7.735-2.9433-7.735-7.3709s3.248-7.3959 7.735-7.3959zm0 10.8989c1.989 0 3.364-1.3992 3.364-3.533s-1.375-3.503-3.364-3.503c-1.988 0-3.393 1.3991-3.393 3.503 0 2.1038 1.375 3.533 3.393 3.533z"/><path d="m108.848 20.029c0-1.3643 1.144-2.4787 2.508-2.4787 1.365 0 2.509 1.1144 2.509 2.4787 0 1.3641-1.144 2.4485-2.509 2.4485-1.364 0-2.508-1.1143-2.508-2.4485z"/><path d="m92.1269 8.40055h2.3836l.1949 2.46865c.9246-1.879 2.7735-2.85846 4.9576-2.85846 3.922 0 6.361 2.94336 6.361 7.14606s-2.299 7.3109-6.361 7.3109c-2.1841 0-4.0079-.9244-4.9027-2.6036v8.3805h-2.6334zm6.9762 11.68355c2.6889 0 4.2869-2.0188 4.2869-4.8224 0-2.8034-1.598-4.8473-4.2869-4.8473-2.6883 0-4.3177 1.9889-4.3177 4.8473 0 2.8585 1.6243 4.8224 4.3177 4.8224z"/><path d="m88.8787 8.40051v13.70239h-2.3535l-.28-2.0737c-.7846 1.4292-2.6034 2.4085-4.6226 2.4085-3.1931 0-4.987-2.1587-4.987-5.522v-8.52019h2.6334v7.65079c0 2.9434 1.259 4.0627 3.2782 4.0627 2.4087 0 3.728-1.5392 3.728-4.4825v-7.23099h2.6035z"/><path d="m67.6653 8.03564c4.0928 0 7.116 2.96836 7.116 7.20106 0 4.2326-3.0282 7.2009-7.116 7.2009-4.0874 0-7.1458-2.9683-7.1458-7.2009 0-4.2327 3.0284-7.20106 7.1458-7.20106zm0 12.04836c2.6339 0 4.4826-1.989 4.4826-4.8473 0-2.8584-1.8487-4.8474-4.4826-4.8474-2.6335 0-4.4823 1.989-4.4823 4.8474 0 2.8583 1.8188 4.8473 4.4823 4.8473z"/><path d="m60.0147 10.6992h-1.1795c-2.4934 0-4.0328 1.5141-4.0328 4.1477v7.256h-2.6334v-13.67247h2.4684l.17 2.07387c.5598-1.42924 1.9342-2.38369 3.8129-2.38369.4749 0 .8697.05496 1.3995.16986v2.40873z"/><path d="m41.5798 8.01074c2.2138 0 3.9228 1.00944 4.7923 2.71846l.1951-2.32365h2.3536v13.14265c0 4.3177-2.6634 7.0612-6.8662 7.0612-3.7279 0-6.2766-2.1038-6.7813-5.5769h2.6336c.3348 2.0188 1.849 3.1933 4.1477 3.1933 2.5787 0 4.2577-1.6792 4.2577-4.2877v-2.7486c-.8946 1.5992-2.6885 2.5487-4.8474 2.5487-3.8928 0-6.3614-2.9983-6.3614-6.8363 0-3.8378 2.4936-6.89116 6.4714-6.89116zm.335 11.43376c2.6634 0 4.2875-1.904 4.2875-4.5975s-1.569-4.5375-4.2575-4.5375c-2.6886 0-4.2028 2.0189-4.2028 4.5375s1.5992 4.5975 4.1728 4.5975z"/></g><path d="m25.4038 6.50661-10.6891-6.171579c-.7745-.444755-1.724-.444755-2.4986 0l-10.68407 6.171579c-.774579.44477-1.249315 1.26929-1.249315 2.16383v12.33816c0 .8946.474736 1.719 1.249315 2.1637l10.68407 6.1717c.7746.4447 1.7241.4447 2.4986 0l10.6842-6.1717c.7746-.4447 1.2492-1.2691 1.2492-2.1637v-12.33816c0-.89454-.4746-1.71906-1.2492-2.16383zm-1.749 14.21209-10.1844 5.8818-10.18434-5.8818v-11.76342l10.17934-5.88177 10.1845 5.88177v11.76342z" fill="#fec600"/><path d="m7.29381 10.404c-.46472.2699-.74956.7646-.74956 1.2993v6.2665c0 .5347.28484 1.0295.74956 1.2993l5.42699 3.1333c.4647.2698 1.0345.2698 1.4992 0l5.4271-3.1333c.4646-.2698.7495-.7646.7495-1.2993v-6.2665c0-.5347-.2849-1.0294-.7495-1.2993l-5.4271-3.13323c-.4647-.26988-1.0345-.26988-1.4992 0z" fill="#fec600"/></g></svg>